<?xml version="1.0" encoding="utf-8"?>
<!-- Generator: Adobe Illustrator 17.1.0, SVG Export Plug-In . SVG Version: 6.00 Build 0)  -->
<!DOCTYPE svg PUBLIC "-//W3C//DTD SVG 1.1//EN" "http://www.w3.org/Graphics/SVG/1.1/DTD/svg11.dtd">
<svg version="1.1" id="Layer_1" xmlns="http://www.w3.org/2000/svg" xmlns:xlink="http://www.w3.org/1999/xlink" x="0px" y="0px"
	 width="240px" height="60px" viewBox="0 0 240 60" enable-background="new 0 0 240 60" xml:space="preserve">
<path fill="#C9111E" d="M0.1,22.1c0-6.8,4.3-10,10.3-10c5.9,0,10.3,3.3,10.3,10v3.2h-8v-3.9c0-1.2,0-3.2-2.3-3.2
	c-2.3,0-2.3,2-2.3,3.2v17.1c0,0.9,0,3.2,2.3,3.2c2.3,0,2.3-2.3,2.3-3.2v-5.1h8v4.4c0,6.2-3.9,10-10.3,10S0.1,44,0.1,37.9V22.1z"/>
<path fill="#C9111E" d="M28,12.7h10.6l6.5,34.6h-8.4L36,41.2h-5.6l-0.8,6.2h-8L28,12.7z M31.2,35h4l-1.9-17h-0.1L31.2,35z"/>
<path fill="#C9111E" d="M47.6,12.7h11.1c5.8,0,8.6,2.2,8.6,8.2c0,3.6-0.5,6.9-4.4,8.2v0.1c3.9,0.7,5.2,3.6,5.2,8
	c0,5.8-2.1,10.3-9.2,10.3H47.6V12.7z M55.6,41.4h1.6c2.6,0,2.9-1.3,2.9-4.7c0-2.4-0.3-4.7-2.8-4.7h-1.8V41.4z M55.6,26.4h1.5
	c2.5,0,2.8-1.9,2.8-4c0-2.4-0.5-3.8-2.5-3.8h-1.8V26.4z"/>
<path fill="#C9111E" d="M71.3,12.7h8v28h8.7v6.7H71.3V12.7z"/>
<path fill="#C9111E" d="M90.2,12.7h17.7v6.7h-9.8v6.9h8.5v6.7h-8.5v7.7h10.1v6.7H90.2V12.7z"/>
<path fill="#C9111E" d="M109.8,12.7h18.3v6.7h-5.2v28h-8v-28h-5.2V12.7z"/>
<path fill="#C9111E" d="M130.5,12.7h10.5c7.1,0,10.1,2.1,10.1,8.4c0,4.1-0.6,6.7-4.8,8v0.1c2.8,0.6,4.6,2.6,4.6,5.5v6.1
	c0,2.3-0.1,5.4,0.8,6.5h-7.9c-0.9-1.1-0.9-4.2-0.9-6.5v-5.5c0-2-0.8-2.9-3-2.9h-1.5v15h-8V12.7z M138.5,26.5h2
	c2.7,0,2.7-1.8,2.7-4.1c0-2.4,0-3.8-3.1-3.8h-1.6V26.5z"/>
<path fill="#C9111E" d="M154.9,22.1c0-6.8,4.3-10,10.3-10c5.9,0,10.3,3.3,10.3,10v15.7c0,6.2-3.9,10-10.3,10
	c-6.3,0-10.3-3.9-10.3-10V22.1z M162.8,38.6c0,0.9,0,3.2,2.3,3.2c2.3,0,2.3-2.3,2.3-3.2V21.4c0-1.2,0-3.2-2.3-3.2
	c-2.3,0-2.3,2-2.3,3.2V38.6z"/>
<path fill="#C9111E" d="M179.5,12.7h8.7l6.4,20.4h0.1V12.7h7.7v34.6h-8.7l-6.5-21.4h-0.1v21.4h-7.7V12.7z"/>
<path fill="#C9111E" d="M206.9,12.7h8v34.6h-8V12.7z"/>
<path fill="#C9111E" d="M219.3,22.1c0-6.8,4.3-10,10.3-10c5.9,0,10.3,3.3,10.3,10v3.2h-8v-3.9c0-1.2,0-3.2-2.3-3.2
	c-2.3,0-2.3,2-2.3,3.2v17.1c0,0.9,0,3.2,2.3,3.2c2.3,0,2.3-2.3,2.3-3.2v-5.1h8v4.4c0,6.2-3.9,10-10.3,10c-6.3,0-10.3-3.9-10.3-10
	V22.1z"/>
<polygon fill-rule="evenodd" clip-rule="evenodd" fill="#B5B5B5" points="239.9,6.8 239.9,0.1 0.1,0.1 0.1,6.8 "/>
<rect x="0.1" y="53.2" fill-rule="evenodd" clip-rule="evenodd" fill="#B5B5B5" width="239.7" height="6.7"/>
</svg>
