<?xml version="1.0" encoding="utf-8"?>
<!-- Generator: Adobe Illustrator 17.0.2, SVG Export Plug-In . SVG Version: 6.00 Build 0)  -->
<!DOCTYPE svg PUBLIC "-//W3C//DTD SVG 1.1//EN" "http://www.w3.org/Graphics/SVG/1.1/DTD/svg11.dtd">
<svg version="1.1" id="Layer_1" xmlns="http://www.w3.org/2000/svg" xmlns:xlink="http://www.w3.org/1999/xlink" x="0px" y="0px"
	 width="240px" height="59.828px" viewBox="0 0 240 59.828" enable-background="new 0 0 240 59.828" xml:space="preserve">
<g>
	<path fill="#BC151B" d="M0.238,22.075c0-6.763,4.335-10.015,10.275-10.015c5.94,0,10.275,3.252,10.275,10.015v3.208h-7.977v-3.902
		c0-1.171,0-3.165-2.298-3.165s-2.298,1.994-2.298,3.165v17.125c0,0.911,0,3.165,2.298,3.165s2.298-2.254,2.298-3.165v-5.073h7.977
		v4.379c0,6.156-3.945,10.015-10.275,10.015S0.238,43.969,0.238,37.813V22.075z"/>
	<path fill="#BC151B" d="M29.283,12.623h10.579l6.503,34.641h-8.368l-0.737-6.156h-5.593l-0.824,6.156h-7.977L29.283,12.623z
		 M32.491,34.951h3.989l-1.864-16.952h-0.087L32.491,34.951z"/>
	<path fill="#BC151B" d="M48.443,12.623h11.056c5.81,0,8.628,2.211,8.628,8.151c0,3.642-0.52,6.85-4.379,8.151v0.087
		c3.902,0.694,5.246,3.598,5.246,7.977c0,5.81-2.124,10.275-9.235,10.275H48.443V12.623z M56.421,41.368h1.647
		c2.645,0,2.948-1.301,2.948-4.726c0-2.385-0.304-4.682-2.775-4.682h-1.821V41.368z M56.421,26.323h1.474
		c2.515,0,2.775-1.864,2.775-4.032c0-2.428-0.52-3.772-2.471-3.772h-1.778V26.323z"/>
	<path fill="#BC151B" d="M72.546,12.623h7.977v27.964h8.671v6.677H72.546V12.623z"/>
	<path fill="#BC151B" d="M91.79,12.623h17.732V19.3h-9.755v6.893h8.541v6.677h-8.541v7.717h10.145v6.677H91.79V12.623z"/>
	<path fill="#BC151B" d="M112.168,12.623h18.296V19.3h-5.159v27.964h-7.977V19.3h-5.159V12.623z"/>
	<path fill="#BC151B" d="M132.713,12.623h10.535c7.11,0,10.102,2.124,10.102,8.368c0,4.075-0.564,6.72-4.812,8.021v0.087
		c2.818,0.564,4.639,2.601,4.639,5.506v6.113c0,2.298-0.087,5.419,0.824,6.547h-7.891c-0.91-1.127-0.91-4.249-0.91-6.547v-5.549
		c0-1.994-0.78-2.861-3.035-2.861h-1.474v14.958h-7.977V12.623z M140.691,26.41h1.951c2.731,0,2.731-1.821,2.731-4.075
		c0-2.428,0-3.815-3.122-3.815h-1.561V26.41z"/>
	<path fill="#BC151B" d="M156.816,22.075c0-6.763,4.336-10.015,10.275-10.015c5.94,0,10.275,3.252,10.275,10.015v15.738
		c0,6.156-3.945,10.015-10.275,10.015c-6.33,0-10.275-3.859-10.275-10.015V22.075z M164.793,38.506c0,0.911,0,3.165,2.298,3.165
		c2.298,0,2.298-2.254,2.298-3.165V21.381c0-1.171,0-3.165-2.298-3.165c-2.298,0-2.298,1.994-2.298,3.165V38.506z"/>
	<path fill="#BC151B" d="M180.919,12.623h8.714l6.417,20.42h0.087v-20.42h7.717v34.641h-8.671l-6.46-21.417h-0.087v21.417h-7.717
		V12.623z"/>
	<path fill="#BC151B" d="M207.664,12.623h7.977v34.641h-7.977V12.623z"/>
	<path fill="#BC151B" d="M219.45,22.075c0-6.763,4.336-10.015,10.275-10.015S240,15.311,240,22.075v3.208h-7.977v-3.902
		c0-1.171,0-3.165-2.298-3.165s-2.298,1.994-2.298,3.165v17.125c0,0.911,0,3.165,2.298,3.165s2.298-2.254,2.298-3.165v-5.073H240
		v4.379c0,6.156-3.945,10.015-10.275,10.015c-6.33,0-10.275-3.859-10.275-10.015V22.075z"/>
</g>
<polygon fill-rule="evenodd" clip-rule="evenodd" fill="#B3B3B3" points="239.734,6.722 239.753,0 0.019,0 0,6.722 "/>
<rect x="0" y="53.083" fill-rule="evenodd" clip-rule="evenodd" fill="#B3B3B3" width="239.734" height="6.745"/>
</svg>
