<?xml version="1.0" encoding="utf-8"?>
<!-- Generator: Adobe Illustrator 17.1.0, SVG Export Plug-In . SVG Version: 6.00 Build 0)  -->
<!DOCTYPE svg PUBLIC "-//W3C//DTD SVG 1.1//EN" "http://www.w3.org/Graphics/SVG/1.1/DTD/svg11.dtd">
<svg version="1.1" id="Layer_1" xmlns="http://www.w3.org/2000/svg" xmlns:xlink="http://www.w3.org/1999/xlink" x="0px" y="0px"
	 width="3000px" height="1200px" viewBox="-500 0 3000 1200" enable-background="new -500 0 3000 1200" xml:space="preserve">
<g id="Layer_2" display="none">
	<path display="inline" opacity="0.9" fill="#222221" enable-background="new    " d="M3417.6-264.8h-809.1v-322.7h-2980v322.7
		h-1045.3v1953.2h1277.3v336.1h2692v-336.1h865.1V-264.8z M1710.4-3.5h288v1200h-288L1710.4-3.5L1710.4-3.5z M291.2,1196.5H2.4V-3.5
		h288.9V1196.5z"/>
</g>
<path opacity="4.000000e-02" fill="none" stroke="#000000" stroke-width="14" stroke-miterlimit="10" d="M842.4,587.9"/>
<g opacity="4.000000e-02">
	<defs>
		<rect id="SVGID_1_" x="-588" y="-304" opacity="4.000000e-02" width="878" height="1756"/>
	</defs>
	<clipPath id="SVGID_2_">
		<use xlink:href="#SVGID_1_"  overflow="visible"/>
	</clipPath>
	<g clip-path="url(#SVGID_2_)">
		<g>
			<path fill="none" stroke="#000000" stroke-width="14" stroke-miterlimit="10" d="M387.4,1043.7H-84.2
				c-19.2,0-34.6-15.6-34.6-34.6v-0.5c0-19.2,15.6-34.6,34.6-34.6h134c19.2,0,34.6-15.6,34.6-34.6l-0.2-146.2
				c0-19.2-15.6-34.6-34.6-34.6h-238c-19.2,0-34.6,15.6-34.6,35.1v395.7c0,18.7-15.6,34.3-34.6,34.3h-113.4
				c-19.2,0-34.6,15.6-34.6,34.6v87.9"/>
			<path fill="none" stroke="#000000" stroke-width="14" stroke-miterlimit="10" d="M-170.1,1154.5c0-19.2-15.6-34.6-34.6-34.6
				h-325.6"/>
			<path fill="none" stroke="#000000" stroke-width="14" stroke-miterlimit="10" d="M-42,858.2c19.2,0,34.6,15.6,34.6,34.6V1346"/>
			<path fill="none" stroke="#000000" stroke-width="14" stroke-miterlimit="10" d="M129.7,806.1"/>
			<path fill="none" stroke="#000000" stroke-width="14" stroke-miterlimit="10" d="M387.2,887.8H246.9c-19.2,0-34.6,15.6-34.6,34.6
				v422"/>
			<path fill="none" stroke="#000000" stroke-width="14" stroke-miterlimit="10" d="M-77.4,1346V733c0-19.2,15.6-34.6,34.6-34.6
				h431.8"/>
			<path fill="none" stroke="#000000" stroke-width="14" stroke-miterlimit="10" d="M-536.1,885.7h112.8c19.2,0,34.6,15.6,34.6,34.6
				l-0.6,121.8c0,19.2-15.6,34.6-34.6,34.6h-107.8"/>
			<path fill="none" stroke="#000000" stroke-width="14" stroke-miterlimit="10" d="M387.2,975.4H287.1c-19.2,0-34.6-15.6-34.6-34.6
				V670.4c0-19.2-15.6-34.6-34.6-34.6h-151h-1.9c-19.2,0-34.6,15.6-34.6,34.6v100.9c0,19.2,15.6,34.6,34.6,34.6h322.5"/>
			<path fill="none" stroke="#000000" stroke-width="14" stroke-miterlimit="10" d="M388.2,1156.8h-687.7
				c-19.2,0-34.6-15.6-34.6-34.6v-110.4c0-19.2-15.6-34.6-34.6-34.6H-533"/>
			<path fill="none" stroke="#000000" stroke-width="14" stroke-miterlimit="10" d="M387.2,1120.2H136.8
				c-19.2,0-34.6,15.6-34.6,34.6v188.5"/>
			<path fill="none" stroke="#000000" stroke-width="14" stroke-miterlimit="10" d="M216.5,587.7l-589.2,0.1
				c-19.1,0-34.6,15.5-34.6,34.6l0.1,146.1c0,19.2,15.6,34.6,34.6,34.6h14.1c19.2,0,34.6-15.6,34.6-34.6v-82.5
				c0-19.2,15.6-34.6,34.6-34.6h107.9c19.2,0,34.6,15.6,34.6,34.6l-0.2,207.4c0,19.2-15.6,34.6-34.6,34.6l-116.1-0.1
				c-19.2,0-34.6-15.6-34.6-34.6v-0.5c0-19.2,15.6-34.6,34.6-34.6h258"/>
			<line fill="none" stroke="#000000" stroke-width="14" stroke-miterlimit="10" x1="-170.1" y1="1154.5" x2="-170.1" y2="1346"/>
		</g>
		<g>
			<path fill="none" stroke="#000000" stroke-width="14" stroke-miterlimit="10" d="M-543.4,144.9h471.7c19.2,0,34.6,15.6,34.6,34.6
				v0.5c0,19.2-15.6,34.6-34.6,34.6h-134c-19.2,0-34.6,15.6-34.6,34.6l0.2,146.2c0,19.2,15.6,34.6,34.6,34.6h238
				c19.2,0,34.6-15.6,34.6-35.1V-0.6c0-18.7,15.6-34.3,34.6-34.3h253.3"/>
			<path fill="none" stroke="#000000" stroke-width="14" stroke-miterlimit="10" d="M14.1,34.1c0,19.2,15.6,34.6,34.6,34.6h325.6"/>
			<path fill="none" stroke="#000000" stroke-width="14" stroke-miterlimit="10" d="M-114,330.4c-19.2,0-34.6-15.6-34.6-34.6v-453.1
				"/>
			<path fill="none" stroke="#000000" stroke-width="14" stroke-miterlimit="10" d="M-285.7,382.5"/>
			<path fill="none" stroke="#000000" stroke-width="14" stroke-miterlimit="10" d="M-543.2,300.8h140.3c19.2,0,34.6-15.6,34.6-34.6
				v-422"/>
			<path fill="none" stroke="#000000" stroke-width="14" stroke-miterlimit="10" d="M-78.6-157.4v613c0,19.2-15.6,34.6-34.6,34.6
				h-431.8"/>
			<path fill="none" stroke="#000000" stroke-width="14" stroke-miterlimit="10" d="M380.1,302.9H267.3c-19.2,0-34.6-15.6-34.6-34.6
				l0.6-121.8c0-19.2,15.6-34.6,34.6-34.6h107.8"/>
			<path fill="none" stroke="#000000" stroke-width="14" stroke-miterlimit="10" d="M-543.2,213.2h100.1c19.2,0,34.6,15.6,34.6,34.6
				v270.3c0,19.2,15.6,34.6,34.6,34.6h151h1.9c19.2,0,34.6-15.6,34.6-34.6V417.2c0-19.2-15.6-34.6-34.6-34.6h-322.5"/>
			<path fill="none" stroke="#000000" stroke-width="14" stroke-miterlimit="10" d="M-544.2,31.8h687.7c19.2,0,34.6,15.6,34.6,34.6
				v110.4c0,19.2,15.6,34.6,34.6,34.6H377"/>
			<path fill="none" stroke="#000000" stroke-width="14" stroke-miterlimit="10" d="M-543.2,68.4h250.4c19.2,0,34.6-15.6,34.6-34.6
				v-188.6"/>
			<path fill="none" stroke="#000000" stroke-width="14" stroke-miterlimit="10" d="M-116.2,330.4h258c19.1,0,34.6-15.5,34.6-34.6
				v-0.5c0-19.1-15.5-34.6-34.6-34.6l-116.1-0.1c-19.1,0-34.6,15.5-34.6,34.6l-0.2,207.4c0,19.1,15.5,34.6,34.6,34.6h107.9
				c19.1,0,34.6-15.5,34.6-34.6V420c0-19.1,15.5-34.6,34.6-34.6h14.1c19.1,0,34.6,15.5,34.6,34.6v28.4l-0.1,1.9V502l0,23v28.1
				c0,19.2-15.6,34.6-34.6,34.6"/>
			<line fill="none" stroke="#000000" stroke-width="14" stroke-miterlimit="10" x1="14.1" y1="34.1" x2="14.1" y2="-157.4"/>
		</g>
	</g>
	<path clip-path="url(#SVGID_2_)" fill="none" stroke="#000000" stroke-width="14" stroke-miterlimit="10" d="M251.1,471.3"/>
</g>
<g opacity="4.000000e-02">
	<defs>
		<rect id="SVGID_3_" x="1710" y="-316" opacity="4.000000e-02" width="942" height="1669.6"/>
	</defs>
	<clipPath id="SVGID_4_">
		<use xlink:href="#SVGID_3_"  overflow="visible"/>
	</clipPath>
	<g clip-path="url(#SVGID_4_)">
		<g>
			<path fill="none" stroke="#000000" stroke-width="14" stroke-miterlimit="10" d="M1623.6,162.2h471.7c19.2,0,34.6,15.6,34.6,34.6
				v0.5c0,19.2-15.6,34.6-34.6,34.6h-134c-19.2,0-34.6,15.6-34.6,34.6l0.2,146.2c0,19.2,15.6,34.6,34.6,34.6h238
				c19.2,0,34.6-15.6,34.6-35.1V16.6c0-18.7,15.6-34.3,34.6-34.3h113.4c19.2,0,34.6-15.6,34.6-34.6v-87.9"/>
			<path fill="none" stroke="#000000" stroke-width="14" stroke-miterlimit="10" d="M2181.1,51.4c0,19.2,15.6,34.6,34.6,34.6h325.6"
				/>
			<path fill="none" stroke="#000000" stroke-width="14" stroke-miterlimit="10" d="M2053,347.6c-19.2,0-34.6-15.6-34.6-34.6v-453.1
				"/>
			<path fill="none" stroke="#000000" stroke-width="14" stroke-miterlimit="10" d="M1881.3,399.7"/>
			<path fill="none" stroke="#000000" stroke-width="14" stroke-miterlimit="10" d="M1623.8,318h140.3c19.2,0,34.6-15.6,34.6-34.6
				v-422"/>
			<path fill="none" stroke="#000000" stroke-width="14" stroke-miterlimit="10" d="M2088.4-140.2v613c0,19.2-15.6,34.6-34.6,34.6
				h-431.8"/>
			<path fill="none" stroke="#000000" stroke-width="14" stroke-miterlimit="10" d="M2547.1,320.2h-112.8
				c-19.2,0-34.6-15.6-34.6-34.6l0.6-121.8c0-19.2,15.6-34.6,34.6-34.6h107.8"/>
			<path fill="none" stroke="#000000" stroke-width="14" stroke-miterlimit="10" d="M1623.8,230.4h100.1c19.2,0,34.6,15.6,34.6,34.6
				v270.3c0,19.2,15.6,34.6,34.6,34.6h151h1.9c19.2,0,34.6-15.6,34.6-34.6V434.4c0-19.2-15.6-34.6-34.6-34.6h-322.5"/>
			<path fill="none" stroke="#000000" stroke-width="14" stroke-miterlimit="10" d="M1622.8,49h687.7c19.2,0,34.6,15.6,34.6,34.6
				v110.4c0,19.2,15.6,34.6,34.6,34.6H2544"/>
			<path fill="none" stroke="#000000" stroke-width="14" stroke-miterlimit="10" d="M1623.8,85.6h250.4c19.2,0,34.6-15.6,34.6-34.6
				v-188.6"/>
			<path fill="none" stroke="#000000" stroke-width="14" stroke-miterlimit="10" d="M2418.3,518.9l0-36.9v-44.8
				c0-19.2-15.6-34.6-34.6-34.6h-14.1c-19.2,0-34.6,15.6-34.6,34.6v82.5c0,19.2-15.6,34.6-34.6,34.6h-107.9
				c-19.2,0-34.6-15.6-34.6-34.6l0.2-207.4c0-19.2,15.6-34.6,34.6-34.6l116.1,0.1c19.2,0,34.6,15.6,34.6,34.6v0.5
				c0,19.2-15.6,34.6-34.6,34.6h-258"/>
			<line fill="none" stroke="#000000" stroke-width="14" stroke-miterlimit="10" x1="2181.1" y1="51.4" x2="2181.1" y2="-140.2"/>
		</g>
		<g>
			<path fill="none" stroke="#000000" stroke-width="14" stroke-miterlimit="10" d="M2554.4,1053.9h-471.7
				c-19.2,0-34.6-15.6-34.6-34.6v-0.5c0-19.2,15.6-34.6,34.6-34.6h134c19.2,0,34.6-15.6,34.6-34.6l-0.2-146.2
				c0-19.2-15.6-34.6-34.6-34.6h-238c-19.2,0-34.6,15.6-34.6,35.1v395.7c0,18.7-15.6,34.3-34.6,34.3h-253.3"/>
			<path fill="none" stroke="#000000" stroke-width="14" stroke-miterlimit="10" d="M1996.9,1164.7c0-19.2-15.6-34.6-34.6-34.6
				h-325.6"/>
			<path fill="none" stroke="#000000" stroke-width="14" stroke-miterlimit="10" d="M2125,868.5c19.2,0,34.6,15.6,34.6,34.6v453.1"
				/>
			<path fill="none" stroke="#000000" stroke-width="14" stroke-miterlimit="10" d="M2296.7,816.4"/>
			<path fill="none" stroke="#000000" stroke-width="14" stroke-miterlimit="10" d="M2554.2,898h-140.3c-19.2,0-34.6,15.6-34.6,34.6
				v422"/>
			<path fill="none" stroke="#000000" stroke-width="14" stroke-miterlimit="10" d="M2089.6,1356.2v-613c0-19.2,15.6-34.6,34.6-34.6
				H2556"/>
			<path fill="none" stroke="#000000" stroke-width="14" stroke-miterlimit="10" d="M1630.9,895.9h112.8c19.2,0,34.6,15.6,34.6,34.6
				l-0.6,121.8c0,19.2-15.6,34.6-34.6,34.6h-107.8"/>
			<path fill="none" stroke="#000000" stroke-width="14" stroke-miterlimit="10" d="M2554.2,985.6h-100.1
				c-19.2,0-34.6-15.6-34.6-34.6V680.7c0-19.2-15.6-34.6-34.6-34.6h-151h-1.9c-19.2,0-34.6,15.6-34.6,34.6v100.9
				c0,19.2,15.6,34.6,34.6,34.6h322.5"/>
			<path fill="none" stroke="#000000" stroke-width="14" stroke-miterlimit="10" d="M2555.2,1167h-687.7
				c-19.2,0-34.6-15.6-34.6-34.6V1022c0-19.2-15.6-34.6-34.6-34.6H1634"/>
			<path fill="none" stroke="#000000" stroke-width="14" stroke-miterlimit="10" d="M2088.8,606.9"/>
			<path fill="none" stroke="#000000" stroke-width="14" stroke-miterlimit="10" d="M2554.2,1130.4h-250.4
				c-19.2,0-34.6,15.6-34.6,34.6v188.6"/>
			<path fill="none" stroke="#000000" stroke-width="14" stroke-miterlimit="10" d="M1794.4,608H2378H1794.4
				c-19.1,0-34.6,15.5-34.6,34.6l0.1,105.9l-0.1,1.9v28.4c0,19.2,15.6,34.6,34.6,34.6h14.1c19.2,0,34.6-15.6,34.6-34.6v-82.5
				c0-19.2,15.6-34.6,34.6-34.6h107.9c19.2,0,34.6,15.6,34.6,34.6l-0.2,207.4c0,19.2-15.6,34.6-34.6,34.6l-116.1-0.1
				c-19.2,0-34.6-15.6-34.6-34.6v-0.5c0-19.2,15.6-34.6,34.6-34.6h258"/>
			<line fill="none" stroke="#000000" stroke-width="14" stroke-miterlimit="10" x1="1996.9" y1="1164.7" x2="1996.9" y2="1356.2"/>
		</g>
	</g>
	<path clip-path="url(#SVGID_4_)" fill="none" stroke="#000000" stroke-width="14" stroke-miterlimit="10" d="M2418.4,480.5l0,92.8
		c0,19.2-15.6,34.6-34.6,34.6l-5.7,0"/>
</g>
</svg>
