<?xml version="1.0" encoding="utf-8"?>
<!-- Generator: Adobe Illustrator 17.0.1, SVG Export Plug-In . SVG Version: 6.00 Build 0)  -->
<!DOCTYPE svg PUBLIC "-//W3C//DTD SVG 1.1//EN" "http://www.w3.org/Graphics/SVG/1.1/DTD/svg11.dtd">
<svg version="1.1" id="Layer_1" xmlns="http://www.w3.org/2000/svg" xmlns:xlink="http://www.w3.org/1999/xlink" x="0px" y="0px"
	 width="45px" height="45px" viewBox="-7.5 -7.5 45 45" enable-background="new -7.5 -7.5 45 45" xml:space="preserve">
<path fill="#FFFFFF" d="M26.494,22.876v2.622h-22v-2.622l7.333-4.711v-1.833c-0.452,0-0.871-0.455-1.256-1.366
	c-0.385-0.91-0.577-1.678-0.577-2.301V8.998c0-1.516,0.538-2.811,1.613-3.887c1.076-1.075,2.371-1.613,3.887-1.613
	s2.811,0.538,3.887,1.613c1.075,1.076,1.613,2.371,1.613,3.887v3.667c0,0.623-0.192,1.39-0.577,2.301
	c-0.385,0.911-0.804,1.366-1.256,1.366v1.833L26.494,22.876z"/>
</svg>
