<?xml version="1.0" encoding="utf-8"?>
<!-- Generator: Adobe Illustrator 17.0.1, SVG Export Plug-In . SVG Version: 6.00 Build 0)  -->
<!DOCTYPE svg PUBLIC "-//W3C//DTD SVG 1.1//EN" "http://www.w3.org/Graphics/SVG/1.1/DTD/svg11.dtd">
<svg version="1.1" id="Layer_1" xmlns="http://www.w3.org/2000/svg" xmlns:xlink="http://www.w3.org/1999/xlink" x="0px" y="0px"
	 width="45px" height="45px" viewBox="-7.5 -7.5 45 45" enable-background="new -7.5 -7.5 45 45" xml:space="preserve">
<path fill="#FFFFFF" d="M24.7,3.498h1.723c0.244,0,0.458,0.089,0.642,0.266c0.184,0.177,0.275,0.394,0.275,0.651
	c0,0.257-0.091,0.474-0.275,0.651c-0.184,0.177-0.397,0.266-0.642,0.266h-0.99l-3.685,17.618c-0.025,0.049-0.062,0.114-0.11,0.192
	c-0.049,0.08-0.165,0.187-0.348,0.321s-0.385,0.201-0.605,0.201h-0.568v0.917c0,0.244-0.089,0.458-0.266,0.642
	c-0.177,0.184-0.394,0.275-0.651,0.275c-0.257,0-0.474-0.091-0.651-0.275c-0.177-0.184-0.266-0.397-0.266-0.642v-0.917h-5.5v0.917
	c0,0.244-0.089,0.458-0.266,0.642c-0.177,0.184-0.394,0.275-0.651,0.275c-0.257,0-0.474-0.091-0.651-0.275
	c-0.177-0.184-0.266-0.397-0.266-0.642v-0.917h-0.917c-0.257,0-0.474-0.091-0.651-0.275s-0.266-0.397-0.266-0.642
	c0-0.257,0.089-0.474,0.266-0.651s0.394-0.266,0.651-0.266h9.809l0.88-3.667H9.116c-0.391,0-0.724-0.128-0.999-0.385
	c-0.275-0.257-0.443-0.519-0.504-0.789L5.78,8.282c-0.062-0.293,0-0.55,0.183-0.77c0.171-0.232,0.41-0.348,0.715-0.348h16.427
	l0.696-2.97c0.062-0.208,0.175-0.376,0.339-0.504C24.306,3.562,24.492,3.498,24.7,3.498z"/>
</svg>
