<?xml version="1.0" encoding="utf-8"?>
<!-- Generator: Adobe Illustrator 17.0.1, SVG Export Plug-In . SVG Version: 6.00 Build 0)  -->
<!DOCTYPE svg PUBLIC "-//W3C//DTD SVG 1.1//EN" "http://www.w3.org/Graphics/SVG/1.1/DTD/svg11.dtd">
<svg version="1.1" id="Layer_1" xmlns="http://www.w3.org/2000/svg" xmlns:xlink="http://www.w3.org/1999/xlink" x="0px" y="0px"
	 width="45px" height="45px" viewBox="-7.5 -7.5 45 45" enable-background="new -7.5 -7.5 45 45" xml:space="preserve">
<path fill="#FFFFFF" d="M15.069,3.996c1.471,0,2.829,0.377,4.074,1.13c1.244,0.754,2.228,1.767,2.952,3.041
	c0.724,1.274,1.086,2.647,1.086,4.119c0,1.471-0.437,3.098-1.31,4.881c-0.874,1.364-1.87,2.781-2.988,4.253
	c-1.119,1.471-2.019,2.601-2.7,3.392l-1.023,1.184c-0.119-0.108-0.281-0.263-0.485-0.466c-0.203-0.203-0.601-0.626-1.193-1.265
	c-0.592-0.64-1.167-1.292-1.724-1.956c-0.556-0.664-1.179-1.475-1.865-2.431c-0.689-0.958-1.29-1.885-1.804-2.782
	c-0.754-1.662-1.13-3.23-1.13-4.702c0-1.483,0.362-2.868,1.086-4.154c0.724-1.285,1.71-2.315,2.961-3.086
	C12.255,4.381,13.609,3.996,15.069,3.996z M15.052,16.539c1.279,0,2.371-0.451,3.274-1.355c0.903-0.903,1.355-1.994,1.355-3.275
	c0-1.279-0.451-2.368-1.355-3.266s-1.995-1.346-3.274-1.346c-1.281,0-2.369,0.452-3.267,1.355c-0.897,0.903-1.346,1.989-1.346,3.257
	c0,1.281,0.451,2.372,1.355,3.275C12.697,16.087,13.783,16.539,15.052,16.539z"/>
</svg>
