<?xml version="1.0" encoding="utf-8"?>
<!-- Generator: Adobe Illustrator 17.0.1, SVG Export Plug-In . SVG Version: 6.00 Build 0)  -->
<!DOCTYPE svg PUBLIC "-//W3C//DTD SVG 1.1//EN" "http://www.w3.org/Graphics/SVG/1.1/DTD/svg11.dtd">
<svg version="1.1" id="Lager_1" xmlns="http://www.w3.org/2000/svg" xmlns:xlink="http://www.w3.org/1999/xlink" x="0px" y="0px"
	 width="426.223px" height="106.25px" viewBox="0 0 426.223 106.25" enable-background="new 0 0 426.223 106.25"
	 xml:space="preserve">
<g>
	<path fill="#FFFFFF" d="M0.422,39.203c0-12.012,7.7-17.786,18.248-17.786c10.548,0,18.248,5.774,18.248,17.786V44.9H22.75v-6.929
		c0-2.079,0-5.621-4.081-5.621c-4.081,0-4.081,3.542-4.081,5.621v30.413c0,1.617,0,5.621,4.081,5.621
		c4.081,0,4.081-4.003,4.081-5.621v-9.008h14.168v7.776c0,10.934-7.007,17.786-18.248,17.786S0.422,78.086,0.422,67.152V39.203z"/>
	<path fill="#FFFFFF" d="M52.004,22.418h18.787l11.549,61.519H67.48l-1.309-10.934h-9.932l-1.463,10.934H40.609L52.004,22.418z
		 M57.702,62.071h7.084l-3.311-30.105h-0.154L57.702,62.071z"/>
	<path fill="#FFFFFF" d="M86.032,22.418h19.634c10.317,0,15.322,3.927,15.322,14.475c0,6.468-0.924,12.165-7.776,14.475v0.154
		c6.93,1.232,9.316,6.391,9.316,14.167c0,10.317-3.773,18.248-16.4,18.248H86.032V22.418z M100.199,73.466h2.926
		c4.696,0,5.235-2.31,5.235-8.393c0-4.234-0.539-8.315-4.928-8.315h-3.233V73.466z M100.199,46.748h2.618
		c4.466,0,4.928-3.311,4.928-7.161c0-4.312-0.924-6.699-4.389-6.699h-3.157V46.748z"/>
	<path fill="#FFFFFF" d="M128.837,22.418h14.167V72.08h15.399v11.857h-29.566V22.418z"/>
	<path fill="#FFFFFF" d="M163.013,22.418h31.492v11.857H177.18v12.242h15.168v11.857H177.18V72.08h18.017v11.857h-32.185V22.418z"/>
	<path fill="#FFFFFF" d="M199.203,22.418h32.492v11.857h-9.163v49.662h-14.167V34.275h-9.162V22.418z"/>
	<path fill="#FFFFFF" d="M235.689,22.418h18.71c12.627,0,17.94,3.772,17.94,14.86c0,7.238-1.002,11.935-8.547,14.245v0.154
		c5.005,1.001,8.238,4.62,8.238,9.778v10.856c0,4.081-0.154,9.624,1.463,11.626h-14.013c-1.617-2.002-1.617-7.545-1.617-11.626
		v-9.855c0-3.542-1.386-5.082-5.391-5.082h-2.617v26.563h-14.167V22.418z M249.856,46.902h3.465c4.851,0,4.851-3.233,4.851-7.237
		c0-4.312,0-6.776-5.544-6.776h-2.771V46.902z"/>
	<path fill="#FFFFFF" d="M278.494,39.203c0-12.012,7.699-17.786,18.248-17.786c10.548,0,18.248,5.774,18.248,17.786v27.949
		c0,10.934-7.007,17.786-18.248,17.786c-11.242,0-18.248-6.853-18.248-17.786V39.203z M292.661,68.384c0,1.617,0,5.621,4.081,5.621
		c4.081,0,4.081-4.003,4.081-5.621V37.971c0-2.079,0-5.621-4.081-5.621c-4.081,0-4.081,3.542-4.081,5.621V68.384z"/>
	<path fill="#FFFFFF" d="M321.299,22.418h15.477l11.395,36.265h0.154V22.418h13.705v61.519h-15.398l-11.473-38.036h-0.154v38.036
		h-13.705V22.418z"/>
	<path fill="#FFFFFF" d="M368.796,22.418h14.167v61.519h-14.167V22.418z"/>
	<path fill="#FFFFFF" d="M389.727,39.203c0-12.012,7.7-17.786,18.248-17.786c10.549,0,18.248,5.774,18.248,17.786V44.9h-14.167
		v-6.929c0-2.079,0-5.621-4.081-5.621c-4.081,0-4.081,3.542-4.081,5.621v30.413c0,1.617,0,5.621,4.081,5.621
		c4.081,0,4.081-4.003,4.081-5.621v-9.008h14.167v7.776c0,10.934-7.006,17.786-18.248,17.786c-11.241,0-18.248-6.853-18.248-17.786
		V39.203z"/>
</g>
<polygon fill-rule="evenodd" clip-rule="evenodd" fill="#FFFFFF" points="425.75,11.937 425.784,0 0.034,0 0,11.937 "/>
<rect x="0" y="94.271" fill-rule="evenodd" clip-rule="evenodd" fill="#FFFFFF" width="425.75" height="11.979"/>
</svg>
