<?xml version="1.0" encoding="utf-8"?>
<!-- Generator: Adobe Illustrator 17.0.1, SVG Export Plug-In . SVG Version: 6.00 Build 0)  -->
<!DOCTYPE svg PUBLIC "-//W3C//DTD SVG 1.1//EN" "http://www.w3.org/Graphics/SVG/1.1/DTD/svg11.dtd">
<svg version="1.1" id="Layer_1" xmlns="http://www.w3.org/2000/svg" xmlns:xlink="http://www.w3.org/1999/xlink" x="0px" y="0px"
	 width="22px" height="22.002px" viewBox="0 0 22 22.002" enable-background="new 0 0 22 22.002" xml:space="preserve">
<g>
	<path d="M16.358,13.694l5.513,5.514C21.957,19.306,22,19.416,22,19.538c0,0.123-0.043,0.233-0.129,0.331l-2.002,2.003
		c-0.097,0.086-0.208,0.129-0.33,0.129s-0.233-0.043-0.33-0.129l-5.514-5.514c-1.458,0.956-3.059,1.434-4.796,1.434
		c-2.452,0-4.548-0.871-6.288-2.61C0.87,13.443,0,11.347,0,8.896C0,6.446,0.87,4.35,2.61,2.61C4.35,0.871,6.446,0,8.898,0
		c2.448,0,4.545,0.871,6.286,2.61c1.738,1.74,2.61,3.836,2.61,6.286C17.793,10.636,17.316,12.235,16.358,13.694z M4.595,4.614
		C3.407,5.802,2.812,7.23,2.812,8.896c0,1.667,0.595,3.095,1.783,4.283c1.19,1.189,2.622,1.783,4.303,1.783
		c1.676,0,3.109-0.591,4.29-1.774c1.181-1.182,1.773-2.613,1.773-4.292c0-1.678-0.592-3.109-1.773-4.292
		c-1.181-1.182-2.613-1.773-4.29-1.773C7.218,2.831,5.785,3.425,4.595,4.614z"/>
</g>
</svg>
