<?xml version="1.0" encoding="utf-8"?>
<!-- Generator: Adobe Illustrator 17.0.1, SVG Export Plug-In . SVG Version: 6.00 Build 0)  -->
<!DOCTYPE svg PUBLIC "-//W3C//DTD SVG 1.1//EN" "http://www.w3.org/Graphics/SVG/1.1/DTD/svg11.dtd">
<svg version="1.1" id="Layer_1" xmlns="http://www.w3.org/2000/svg" xmlns:xlink="http://www.w3.org/1999/xlink" x="0px" y="0px"
	 width="45px" height="45px" viewBox="0 0 45 45" enable-background="new 0 0 45 45" xml:space="preserve">
<path fill="#FFFFFF" d="M27.717,25.053l5.514,5.514c0.086,0.098,0.129,0.208,0.129,0.33c0,0.123-0.043,0.233-0.129,0.331
	l-2.003,2.003c-0.099,0.086-0.208,0.129-0.331,0.129c-0.122,0-0.232-0.043-0.33-0.129l-5.514-5.514
	c-1.458,0.956-3.057,1.434-4.798,1.434c-2.451,0-4.545-0.87-6.285-2.61c-1.74-1.74-2.61-3.836-2.61-6.286
	c0-2.45,0.87-4.545,2.61-6.285c1.74-1.739,3.835-2.61,6.285-2.61s4.546,0.87,6.286,2.61c1.739,1.74,2.61,3.836,2.61,6.285
	C29.151,21.995,28.673,23.594,27.717,25.053z M15.955,15.974c-1.188,1.188-1.783,2.616-1.783,4.282c0,1.666,0.595,3.094,1.783,4.282
	c1.188,1.189,2.622,1.783,4.3,1.783c1.679,0,3.11-0.591,4.291-1.774c1.183-1.182,1.774-2.612,1.774-4.291
	c0-1.678-0.591-3.109-1.774-4.291c-1.182-1.182-2.612-1.773-4.291-1.773C18.577,14.191,17.143,14.785,15.955,15.974z"/>
</svg>
